<svg width="20" height="17" viewBox="0 0 20 17" fill="none" xmlns="http://www.w3.org/2000/svg">
<path d="M10 0L0 9H3V17H17V9H20L10 0ZM10 4.7C12.1 4.7 13.8 6.4 13.8 8.5C13.8 11.5 10 15 10 15C10 15 6.2 11.5 6.2 8.5C6.2 6.4 7.9 4.7 10 4.7ZM10 7C9.60218 7 9.22064 7.15804 8.93934 7.43934C8.65804 7.72064 8.5 8.10218 8.5 8.5C8.5 8.89782 8.65804 9.27936 8.93934 9.56066C9.22064 9.84196 9.60218 10 10 10C10.3978 10 10.7794 9.84196 11.0607 9.56066C11.342 9.27936 11.5 8.89782 11.5 8.5C11.5 8.10218 11.342 7.72064 11.0607 7.43934C10.7794 7.15804 10.3978 7 10 7Z" fill="#FF4242"/>
</svg>
