<svg width="40" height="40" viewBox="0 0 40 40" fill="none" xmlns="http://www.w3.org/2000/svg">
<path d="M12.5 30H15V37.5H12.5V30Z" fill="#FF4242"/>
<path d="M26.25 25H8.75C7.75574 24.999 6.80249 24.6036 6.09945 23.9006C5.3964 23.1975 5.00099 22.2443 5 21.25V7.5H2.5V21.25C2.50198 22.907 3.1611 24.4956 4.33277 25.6672C5.50445 26.8389 7.09301 27.498 8.75 27.5H26.25C27.1609 27.5023 28.0598 27.7077 28.8812 28.1013L21.25 35.7325L23.0175 37.5L30.9013 29.6163C31.9253 30.7501 32.4946 32.2222 32.5 33.75V37.5H35V33.75C34.9967 31.4304 34.0738 29.2067 32.4335 27.5665C30.7933 25.9262 28.5696 25.0033 26.25 25Z" fill="#FF4242"/>
<path d="M31.5933 5.04868L22.8433 2.54868C22.6186 2.48442 22.3805 2.48442 22.1558 2.54868L13.4058 5.04868C13.0944 5.13789 12.8297 5.34454 12.6676 5.62506C12.5056 5.90558 12.4588 6.23806 12.5371 6.55243L13.7496 11.4037V13.7499C13.7496 14.899 13.9759 16.0368 14.4156 17.0984C14.8553 18.16 15.4999 19.1246 16.3124 19.9371C17.1249 20.7496 18.0895 21.3942 19.1511 21.8339C20.2127 22.2736 21.3505 22.4999 22.4996 22.4999C23.6486 22.4999 24.7864 22.2736 25.848 21.8339C26.9096 21.3942 27.8742 20.7496 28.6867 19.9371C29.4992 19.1246 30.1438 18.16 30.5835 17.0984C31.0232 16.0368 31.2496 14.899 31.2496 13.7499V11.4037L32.4621 6.55368C32.5407 6.23914 32.4941 5.90634 32.332 5.62553C32.1699 5.34472 31.905 5.13789 31.5933 5.04868ZM22.4996 5.04993L29.7433 7.11993L29.0246 9.99993H23.7496V7.49993H21.2496V9.99993H15.9758L15.2558 7.11993L22.4996 5.04993ZM22.4996 19.9999C20.8426 19.9979 19.254 19.3388 18.0823 18.1672C16.9107 16.9955 16.2515 15.4069 16.2496 13.7499V12.4999H28.7496V13.7499C28.7476 15.4069 28.0885 16.9955 26.9168 18.1672C25.7451 19.3388 24.1565 19.9979 22.4996 19.9999Z" fill="#FF4242"/>
</svg>
