<svg width="30" height="30" viewBox="0 0 30 30" fill="none" xmlns="http://www.w3.org/2000/svg">
<path d="M8.79853 7.66886C8.79853 7.66886 8.41666 7.46824 8.16853 6.33136C7.92041 5.19449 10.0973 3.09386 10.0973 3.09386C10.0973 3.09386 10.766 2.76949 13.5348 2.81761C16.3035 2.86574 16.9635 3.31386 17.5367 4.00136C20.0348 7.00011 24.7273 12.9689 25.841 17.6751C26.0948 18.3764 26.4448 17.9939 26.4448 19.1257C26.4448 19.937 26.001 20.1607 25.8823 20.2932C22.9985 23.5207 15.9323 24.5901 12.7804 24.5901C9.62853 24.5901 9.64853 23.8645 8.76978 23.8645C7.89103 23.8645 6.91728 26.7676 4.74478 27.1876C3.12603 23.9407 3.19291 17.3707 4.74478 13.9001C8.39728 13.9001 8.97978 15.3032 10.4885 15.3032C11.7779 15.3032 11.5773 14.5014 13.6117 14.5014C15.646 14.5014 18.4529 16.8214 18.4529 16.8214C16.8629 14.8451 18.6354 10.0289 15.2017 6.82324C14.5567 6.22199 14.256 8.19824 12.2504 8.19824C11.9548 8.37324 10.891 8.51261 10.891 8.51261" stroke="black" stroke-linecap="round" stroke-linejoin="round"/>
<path d="M19.3027 17.64C19.8614 18.2775 21.0095 19.1419 22.077 19.1275M7.79578 18.4594C6.56391 19.9394 6.40141 21.5438 5.16016 22.2125M9.69578 19.1282C11.5489 21.0094 14.9008 20.8844 16.8583 18.8794M16.9414 5.46253C16.8558 5.82065 16.3977 6.3719 16.0602 6.46503M11.7064 4.03003C11.4558 4.33065 10.2377 5.87815 10.2664 6.12878C10.2952 6.3794 10.1164 7.63253 10.4958 7.76878C10.8752 7.90503 12.1645 7.67503 12.1502 7.13128C12.1358 6.58753 12.0283 6.30753 12.057 6.04253C12.0858 5.77753 12.9452 4.46753 12.9452 4.46753" stroke="black" stroke-linecap="round" stroke-linejoin="round"/>
<path d="M10.4665 3.80054C10.1515 4.18054 9.11273 5.64866 9.1271 6.26429C9.14148 6.87991 9.20585 7.33179 9.34898 7.46804C9.4921 7.60429 10.2665 7.28366 10.2665 7.28366" stroke="black" stroke-linecap="round" stroke-linejoin="round"/>
<path d="M10.544 7.78245C10.544 7.78245 10.854 8.11995 10.8896 8.48495C10.9252 8.84995 10.4171 9.2012 9.95211 9.32995C9.48711 9.4587 8.83398 8.58495 8.83398 8.25558C8.83398 7.9262 9.34961 7.46808 9.34961 7.46808M13.4865 6.0437C13.5027 6.50683 13.6159 7.0087 13.2165 7.15433C12.8171 7.29995 12.1259 7.26433 12.1259 7.26433" stroke="black" stroke-linecap="round" stroke-linejoin="round"/>
</svg>
