<svg width="28" height="18" viewBox="0 0 28 18" fill="none" xmlns="http://www.w3.org/2000/svg">
<path d="M1.5 6.5V4C1.5 2.82125 1.5 2.2325 1.86625 1.86625C2.2325 1.5 2.82125 1.5 4 1.5H7.75C12.4637 1.5 14.8213 1.5 16.285 2.965C17.7488 4.43 17.75 6.78625 17.75 11.5V14C17.75 15.1788 17.75 15.7675 17.3837 16.1338C17.0175 16.5 16.4288 16.5 15.25 16.5H11.5C6.78625 16.5 4.42875 16.5 2.965 15.035C1.50125 13.57 1.5 11.2137 1.5 6.5ZM21.375 5.3375L22.25 4.49375C24.0625 2.74625 24.9675 1.8725 25.7337 2.18875C26.5 2.505 26.5 3.75375 26.5 6.25V11.75C26.5 14.2462 26.5 15.495 25.7337 15.8112C24.9675 16.1275 24.0613 15.2537 22.25 13.5062L21.375 12.6625C20.265 11.5925 20.25 11.5562 20.25 10.0287V7.97125C20.25 6.44375 20.265 6.40875 21.375 5.3375Z" stroke="black" stroke-width="1.5" stroke-linecap="round" stroke-linejoin="round"/>
</svg>
