<svg width="20" height="20" viewBox="0 0 20 20" fill="none" xmlns="http://www.w3.org/2000/svg">
<path d="M14.5 0.25V1.75H17.1722L14.641 4.3045C13.7363 3.62123 12.6337 3.25108 11.5 3.25C10.0975 3.25 8.78796 3.805 7.79646 4.79725C7.30636 5.28144 6.91726 5.8581 6.65172 6.4938C6.38618 7.1295 6.24948 7.8116 6.24955 8.50053C6.24962 9.18947 6.38646 9.87153 6.65213 10.5072C6.9178 11.1428 7.30702 11.7194 7.79721 12.2035C8.44971 12.856 9.22671 13.3247 10.0937 13.5625C10.1792 13.4972 10.2752 13.429 10.3517 13.3525C10.6661 13.0328 10.892 12.6368 11.0072 12.2035C10.1906 12.103 9.43132 11.7315 8.85096 11.1483C8.14296 10.441 7.74996 9.502 7.74996 8.5C7.74996 7.498 8.14371 6.5605 8.85246 5.8525C9.55896 5.14225 10.498 4.75 11.5 4.75C12.502 4.75 13.4402 5.14375 14.1475 5.8525C14.4973 6.19889 14.7748 6.61127 14.9641 7.06573C15.1533 7.5202 15.2505 8.00771 15.25 8.5C15.25 9.14875 15.0662 9.7525 14.758 10.3045C14.83 10.6915 14.875 11.098 14.875 11.5C14.875 11.8745 14.8437 12.242 14.7812 12.6025C14.9312 12.4802 15.0647 12.3415 15.2035 12.2035C16.195 11.2105 16.75 9.9025 16.75 8.5C16.75 7.3525 16.372 6.262 15.6955 5.359L18.25 2.8285V5.5H19.75V0.25H14.5ZM9.90621 6.4375C9.82071 6.50275 9.72471 6.571 9.64821 6.6475C9.32421 6.973 9.11271 7.3675 8.99271 7.79725C9.81021 7.90225 10.5565 8.25925 11.149 8.85175C11.8577 9.559 12.2515 10.498 12.2515 11.4993C12.2515 12.5005 11.8577 13.4387 11.149 14.1467C10.441 14.8577 9.50196 15.25 8.49996 15.25C7.49796 15.25 6.55971 14.8563 5.85246 14.1475C5.50232 13.8014 5.22452 13.389 5.03524 12.9345C4.84597 12.48 4.74899 11.9924 4.74996 11.5C4.74996 10.8512 4.93371 10.2475 5.24196 9.6955C5.16751 9.30127 5.12836 8.90119 5.12496 8.5C5.12496 8.126 5.15621 7.7585 5.21871 7.3975C5.06871 7.51975 4.93596 7.6585 4.79646 7.79725C3.80646 8.788 3.24996 10.0975 3.24996 11.5C3.24996 12.6475 3.62796 13.738 4.30446 14.641L3.03996 15.9062L1.53996 14.4062L0.459961 15.4608L1.95996 16.9608L0.459961 18.4608L1.53996 19.5408L3.03996 18.0408L4.53996 19.5408L5.59371 18.4608L4.09371 16.9608L5.35971 15.6962C6.26353 16.3806 7.3663 16.7506 8.49996 16.75C9.90246 16.75 11.212 16.195 12.2035 15.2028C13.195 14.212 13.75 12.9025 13.75 11.5C13.75 10.0975 13.195 8.7895 12.2027 7.7965C11.5502 7.144 10.7732 6.67525 9.90621 6.4375Z" fill="#FF4242"/>
</svg>
