<svg width="70" height="70" viewBox="0 0 70 70" fill="none" xmlns="http://www.w3.org/2000/svg">
<path d="M48.6111 0H21.3889C20.3575 0 19.3683 0.409721 18.639 1.13903C17.9097 1.86834 17.5 2.85749 17.5 3.88889V25.2778C17.5 25.2778 17.5 27.2222 19.4444 29.1667L31.9453 38.8889H38.0547L50.5556 29.1667C52.5 27.2222 52.5 25.2778 52.5 25.2778V3.88889C52.5 2.85749 52.0903 1.86834 51.361 1.13903C50.6317 0.409721 49.6425 0 48.6111 0Z" fill="#55ACEE"/>
<path d="M23.333 0V32.1903L31.945 38.8889H38.0544L46.6663 32.1903V0H23.333Z" fill="#E1E8ED"/>
<path d="M27.2227 0V35.2158L31.9457 38.8889H38.0552L42.7782 35.2158V0H27.2227Z" fill="#DD2E44"/>
<path d="M42.5871 40.8721C42.71 40.549 42.7746 40.2067 42.7777 39.861C42.7777 39.0875 42.4704 38.3456 41.9234 37.7986C41.3764 37.2516 40.6346 36.9443 39.861 36.9443H30.1388C29.3652 36.9443 28.6234 37.2516 28.0764 37.7986C27.5294 38.3456 27.2221 39.0875 27.2221 39.861C27.2221 40.2168 27.296 40.5552 27.4127 40.8721C24.9962 42.2199 22.9836 44.1885 21.5827 46.5746C20.1819 48.9606 19.4436 51.6775 19.4443 54.4443C19.4443 58.5699 21.0832 62.5265 24.0005 65.4438C26.9177 68.361 30.8743 69.9999 34.9999 69.9999C39.1255 69.9999 43.0821 68.361 45.9993 65.4438C48.9166 62.5265 50.5554 58.5699 50.5554 54.4443C50.5554 48.611 47.3393 43.5341 42.5871 40.8721Z" fill="#FFAC33"/>
<path d="M34.9997 66.1112C41.443 66.1112 46.6663 60.8878 46.6663 54.4445C46.6663 48.0012 41.443 42.7778 34.9997 42.7778C28.5564 42.7778 23.333 48.0012 23.333 54.4445C23.333 60.8878 28.5564 66.1112 34.9997 66.1112Z" fill="#FFD983"/>
<path d="M40.3103 62.9221C40.0742 62.9198 39.8443 62.8459 39.6511 62.7102L35 59.3735L30.347 62.7102C30.1544 62.8492 29.923 62.9239 29.6855 62.9237C29.448 62.9235 29.2167 62.8483 29.0244 62.7089C28.8322 62.5694 28.6889 62.3729 28.6149 62.1472C28.5409 61.9215 28.5401 61.6783 28.6125 61.4521L30.347 55.8521L25.7367 52.6029C25.5466 52.4616 25.4057 52.2642 25.3337 52.0385C25.2618 51.8128 25.2625 51.5702 25.3357 51.345C25.4089 51.1197 25.551 50.9231 25.7419 50.7828C25.9328 50.6426 26.1629 50.5658 26.3997 50.5632L32.1106 50.5554L33.9286 45.0935C34.0028 44.8679 34.1463 44.6714 34.3387 44.5321C34.5311 44.3929 34.7625 44.3179 35 44.3179C35.2375 44.3179 35.469 44.3929 35.6613 44.5321C35.8537 44.6714 35.9972 44.8679 36.0714 45.0935L37.8583 50.5554L43.5983 50.5632C43.8364 50.5633 44.0683 50.6387 44.2609 50.7787C44.4535 50.9186 44.5968 51.116 44.6704 51.3423C44.744 51.5687 44.7441 51.8126 44.6706 52.0391C44.5971 52.2655 44.4539 52.4629 44.2614 52.6029L39.6511 55.8521L41.3856 61.4521C41.4394 61.6212 41.4526 61.8006 41.424 61.9758C41.3955 62.151 41.326 62.3169 41.2212 62.4602C41.1164 62.6034 40.9793 62.7199 40.821 62.8002C40.6628 62.8804 40.4878 62.9222 40.3103 62.9221Z" fill="#FFAC33"/>
</svg>
