<svg width="26" height="37" viewBox="0 0 26 37" fill="none" xmlns="http://www.w3.org/2000/svg">
<path d="M6.33322 24.8617L5.31322 22.7651C5.15933 22.4471 4.90836 22.1862 4.59655 22.0201L1.26322 20.2534C0.92018 20.071 0.651655 19.7744 0.504059 19.415C0.356462 19.0556 0.339069 18.6559 0.454885 18.2851L1.63822 14.4967C1.73918 14.1733 1.73918 13.8268 1.63822 13.5034L0.454885 9.71508C0.338768 9.34379 0.356185 8.94359 0.504119 8.5838C0.652054 8.22401 0.921185 7.9273 1.26489 7.74508L4.59655 5.97841C4.90811 5.81275 5.15904 5.55247 5.31322 5.23508L6.98822 1.79008C7.16596 1.42473 7.47103 1.13689 7.84609 0.98067C8.22114 0.824449 8.64034 0.810606 9.02489 0.941744L12.4616 2.11341C12.8106 2.23252 13.1892 2.23252 13.5382 2.11341L16.9749 0.941744C17.3596 0.810728 17.779 0.824814 18.1541 0.981354C18.5291 1.13789 18.8341 1.4261 19.0116 1.79174L20.6866 5.23508C20.8404 5.55309 21.0914 5.81398 21.4032 5.98008L24.7366 7.74674C25.0796 7.92917 25.3481 8.22572 25.4957 8.58513C25.6433 8.94453 25.6607 9.34421 25.5449 9.71508L24.3616 13.5034C24.2606 13.8268 24.2606 14.1733 24.3616 14.4967L25.5449 18.2851C25.661 18.6564 25.6436 19.0566 25.4957 19.4164C25.3477 19.7761 25.0786 20.0729 24.7349 20.2551L21.4032 22.0217C21.0917 22.1874 20.8407 22.4477 20.6866 22.7651L19.6666 24.8617V36.3267L12.9999 34.0634L6.33322 36.3267V24.8617ZM9.66655 26.8401V31.6734L12.9999 30.5417L16.3332 31.6751V26.8401L13.5382 25.8867C13.1892 25.7676 12.8106 25.7676 12.4616 25.8867L9.66655 26.8401ZM17.6882 21.3067C18.1518 20.3532 18.9064 19.5717 19.8432 19.0751L21.9499 17.9584L21.1799 15.4917C20.8763 14.5205 20.8763 13.4797 21.1799 12.5084L21.9499 10.0417L19.8432 8.92508C18.9062 8.42806 18.1515 7.64592 17.6882 6.69174L16.6566 4.57174L14.6132 5.26841C13.5672 5.62499 12.4326 5.62499 11.3866 5.26841L9.34322 4.57174L8.31155 6.69341C7.848 7.64697 7.09333 8.42849 6.15655 8.92508L4.04989 10.0417L4.81989 12.5084C5.12347 13.4797 5.12347 14.5205 4.81989 15.4917L4.04989 17.9584L6.15655 19.0751C7.09359 19.5721 7.84829 20.3542 8.31155 21.3084L9.34322 23.4284L11.3866 22.7317C12.4326 22.3752 13.5672 22.3752 14.6132 22.7317L16.6566 23.4284L17.6882 21.3067ZM12.9999 9.00008C13.4419 9.00008 13.8658 9.17567 14.1784 9.48823C14.491 9.80079 14.6666 10.2247 14.6666 10.6667V17.3334C14.6666 17.7754 14.491 18.1994 14.1784 18.5119C13.8658 18.8245 13.4419 19.0001 12.9999 19.0001C12.5579 19.0001 12.1339 18.8245 11.8214 18.5119C11.5088 18.1994 11.3332 17.7754 11.3332 17.3334V10.6667C11.3332 10.2247 11.5088 9.80079 11.8214 9.48823C12.1339 9.17567 12.5579 9.00008 12.9999 9.00008Z" fill="#FF4242"/>
</svg>
