<svg width="26" height="25" viewBox="0 0 26 25" fill="none" xmlns="http://www.w3.org/2000/svg">
<path fill-rule="evenodd" clip-rule="evenodd" d="M12.0662 11.7375L12.3488 11.8L16.9937 12.96C18.4575 13.3263 19.1937 14.87 18.7312 16.26L19.1313 15.985L19.9388 15.4075C20.345 15.12 20.76 14.8475 21.1912 14.6325C23.1112 13.6725 25.3588 14.9963 25.4938 17.0963L25.5 17.2963V17.365C25.5 18.2363 25.125 19.0613 24.475 19.6325L24.2913 19.7825L20.4537 22.66C20.08 22.94 19.6588 23.1475 19.2113 23.2725L18.9387 23.3375L14.9263 24.14C13.6801 24.3889 12.3876 24.252 11.2212 23.7475L10.9062 23.6013L7.96875 22.1325C7.83914 22.0671 7.69913 22.0248 7.555 22.0075L7.41 22H6.415C6.21351 22.3491 5.93062 22.6442 5.59043 22.8604C5.25024 23.0765 4.86284 23.2072 4.46125 23.2413L4.25 23.25H3C2.36928 23.2502 1.76179 23.012 1.29931 22.5831C0.836838 22.1543 0.553554 21.5664 0.50625 20.9375L0.5 20.75V15.75C0.500116 15.1195 0.738464 14.5123 1.1673 14.0501C1.59613 13.5879 2.18377 13.3048 2.8125 13.2575L3 13.25H4.25C4.855 13.25 5.41 13.465 5.8425 13.8238L5.99875 13.9638L8.48625 12.41C9.4682 11.7961 10.6328 11.542 11.7812 11.6913L12.0662 11.7375ZM9.81125 14.53L6.75 16.4425V19.5H7.41C7.99235 19.5 8.56669 19.6357 9.0875 19.8963L12.025 21.365C12.7709 21.7377 13.6198 21.8512 14.4375 21.6875L18.4487 20.885C18.6318 20.8486 18.8043 20.7718 18.9538 20.66L22.7913 17.7813C22.9513 17.6613 23 17.485 23 17.295C23 17.2182 22.9815 17.1425 22.9461 17.0743C22.9106 17.0062 22.8592 16.9476 22.7963 16.9036C22.7333 16.8595 22.6607 16.8313 22.5845 16.8213C22.5084 16.8114 22.4309 16.8199 22.3587 16.8463L19.3237 18.8713C18.7073 19.2818 17.9831 19.5005 17.2425 19.5H13V17H14.9487C15.211 16.9998 15.4665 16.9171 15.6792 16.7637C15.8919 16.6103 16.0509 16.3938 16.1337 16.145L16.3875 15.385L11.7425 14.225C11.4166 14.1435 11.0776 14.1285 10.7458 14.1809C10.414 14.2333 10.0962 14.352 9.81125 14.53ZM4.25 15.75H3V20.75H4.25V15.75ZM18 1.3375C19.2875 0.532505 20.765 0.596255 21.9575 1.29125C23.3475 2.10125 24.29 3.71875 24.2488 5.56875C24.1975 7.8625 22.4863 9.74875 19.9513 11.3188L19.4538 11.6175C19.0063 11.8825 18.5287 12.14 18 12.14C17.4713 12.14 16.9937 11.8825 16.5462 11.6175L16.0487 11.3175C13.5125 9.74751 11.8025 7.8625 11.75 5.5675C11.7087 3.7175 12.6512 2.1 14.0413 1.29C15.2338 0.595004 16.71 0.531255 17.9987 1.33625L18 1.3375ZM20.6987 3.45125C20.225 3.17625 19.6613 3.14375 19.1012 3.62125L18.8438 3.85875C18.6039 4.04961 18.3065 4.15351 18 4.15351C17.6935 4.15351 17.3961 4.04961 17.1562 3.85875L16.8988 3.62125C16.3375 3.14375 15.7737 3.175 15.3012 3.45125C14.725 3.7875 14.2288 4.53875 14.2513 5.51375C14.2725 6.48625 15.0237 7.73875 17.3363 9.175L17.6337 9.355L18 9.56875L18.3662 9.35625C20.9125 7.84125 21.7262 6.525 21.75 5.51C21.7725 4.53625 21.2762 3.785 20.7 3.44875L20.6987 3.45125Z" fill="#FF4242"/>
</svg>
