<svg width="20" height="24" viewBox="0 0 20 24" fill="none" xmlns="http://www.w3.org/2000/svg">
<path fill-rule="evenodd" clip-rule="evenodd" d="M5.71401 1.71429C5.71401 1.25963 5.89462 0.823594 6.21611 0.502103C6.5376 0.180612 6.97364 0 7.42829 0L12.5711 0C13.0258 0 13.4618 0.180612 13.7833 0.502103C14.1048 0.823594 14.2854 1.25963 14.2854 1.71429V2.57143C14.2854 3.02609 14.1048 3.46212 13.7833 3.78361C13.4618 4.1051 13.0258 4.28571 12.5711 4.28571H7.42829C6.97364 4.28571 6.5376 4.1051 6.21611 3.78361C5.89462 3.46212 5.71401 3.02609 5.71401 2.57143V1.71429ZM16.4283 1.71429H17.2854C17.9674 1.71429 18.6215 1.9852 19.1037 2.46744C19.5859 2.94968 19.8569 3.60373 19.8569 4.28571V21.4286C19.8569 22.1106 19.5859 22.7646 19.1037 23.2468C18.6215 23.7291 17.9674 24 17.2854 24H2.71401C2.03202 24 1.37797 23.7291 0.895732 23.2468C0.413496 22.7646 0.142578 22.1106 0.142578 21.4286V4.28571C0.142578 3.60373 0.413496 2.94968 0.895732 2.46744C1.37797 1.9852 2.03202 1.71429 2.71401 1.71429H3.57115V2.57143C3.57115 3.59441 3.97753 4.57549 4.70088 5.29884C5.42423 6.0222 6.40531 6.42857 7.42829 6.42857H12.5711C13.5941 6.42857 14.5752 6.0222 15.2986 5.29884C16.0219 4.57549 16.4283 3.59441 16.4283 2.57143V1.71429ZM8.23401 10.1966C8.23401 9.82457 8.53572 9.52457 8.90772 9.52457H11.0934C11.4637 9.52457 11.7654 9.82457 11.7654 10.1966V12.8709H14.4397C14.8117 12.8709 15.1117 13.1726 15.1117 13.5446V15.7303C15.1122 15.8187 15.0951 15.9062 15.0615 15.988C15.0279 16.0697 14.9784 16.144 14.9159 16.2065C14.8534 16.269 14.7792 16.3184 14.6974 16.3521C14.6157 16.3857 14.5281 16.4027 14.4397 16.4023H11.7654V19.0766C11.7661 19.1651 11.7492 19.2529 11.7157 19.3348C11.6822 19.4167 11.6328 19.4912 11.5702 19.5539C11.5077 19.6165 11.4334 19.6662 11.3515 19.6999C11.2697 19.7336 11.182 19.7507 11.0934 19.7503H8.90601C8.81749 19.7507 8.72976 19.7336 8.64791 19.6999C8.56606 19.6662 8.49172 19.6165 8.4292 19.5539C8.36669 19.4912 8.31724 19.4167 8.28374 19.3348C8.25023 19.2529 8.23332 19.1651 8.23401 19.0766V16.4023H5.55972C5.47134 16.4027 5.38376 16.3857 5.30202 16.3521C5.22028 16.3184 5.14602 16.269 5.08353 16.2065C5.02104 16.144 4.97156 16.0697 4.93795 15.988C4.90434 15.9062 4.88727 15.8187 4.88772 15.7303V13.5429C4.88772 13.1709 5.18772 12.8691 5.55972 12.8691H8.23401V10.1966Z" fill="#FF4242"/>
</svg>
