<svg width="42" height="42" viewBox="0 0 42 42" fill="none" xmlns="http://www.w3.org/2000/svg">
<path d="M21 0.6875C9.78125 0.6875 0.6875 9.78125 0.6875 21C0.6875 32.2188 9.78125 41.3125 21 41.3125C32.2188 41.3125 41.3125 32.2188 41.3125 21C41.3125 9.78125 32.2188 0.6875 21 0.6875ZM12.96 11.8535L23.2139 18.7871C23.8907 19.2746 24.3485 20.009 24.4881 20.8313C24.6277 21.6537 24.4379 22.498 23.9598 23.1815C23.4818 23.8651 22.7538 24.3329 21.9335 24.4839C21.1131 24.6349 20.2663 24.4568 19.5762 23.9883C19.273 23.7745 19.0087 23.5102 18.7949 23.207L11.8613 12.9531C11.7546 12.8002 11.7051 12.6146 11.7215 12.4289C11.7379 12.2432 11.8191 12.0691 11.9509 11.9373C12.0828 11.8054 12.2568 11.7242 12.4426 11.7078C12.6283 11.6914 12.8139 11.7409 12.9668 11.8477L12.96 11.8535ZM21 38.1875C11.5273 38.1875 3.8125 30.4775 3.8125 21C3.80445 18.6884 4.26667 16.3992 5.17105 14.2718C6.07543 12.1444 7.40307 10.2232 9.07324 8.625C9.20313 8.49551 9.3575 8.39317 9.52734 8.32396C9.69719 8.25474 9.87911 8.22002 10.0625 8.22184C10.2459 8.22365 10.4271 8.26196 10.5956 8.33452C10.764 8.40709 10.9163 8.51246 11.0436 8.64449C11.1709 8.77652 11.2707 8.93258 11.337 9.10355C11.4034 9.27453 11.4351 9.45701 11.4302 9.64035C11.4253 9.8237 11.384 10.0042 11.3086 10.1714C11.2333 10.3386 11.1254 10.4892 10.9912 10.6143C9.5897 11.9557 8.4756 13.5681 7.71662 15.3535C6.95764 17.1389 6.56963 19.06 6.57617 21C6.57617 28.9531 13.0469 35.4238 21 35.4238C28.9531 35.4238 35.4238 28.9531 35.4238 21C35.4238 13.5127 29.6895 7.33984 22.3818 6.64453V12.0156C22.3818 12.3821 22.2362 12.7336 21.9771 12.9927C21.718 13.2519 21.3665 13.3975 21 13.3975C20.6335 13.3975 20.282 13.2519 20.0229 12.9927C19.7638 12.7336 19.6182 12.3821 19.6182 12.0156V5.19434C19.6182 4.82785 19.7638 4.47637 20.0229 4.21723C20.282 3.95809 20.6335 3.8125 21 3.8125C30.4775 3.8125 38.1875 11.5273 38.1875 21C38.1875 30.4727 30.4775 38.1875 21 38.1875Z" fill="#E5E900"/>
</svg>
