<svg width="20" height="20" viewBox="0 0 20 20" fill="none" xmlns="http://www.w3.org/2000/svg">
<path d="M7 12.25C6.65 12.25 6.354 12.129 6.112 11.887C5.87 11.645 5.74933 11.3493 5.75 11C5.75067 10.6507 5.87167 10.3547 6.113 10.112C6.35433 9.86934 6.65 9.74867 7 9.75C7.35 9.75134 7.646 9.87234 7.888 10.113C8.13 10.3537 8.25067 10.6493 8.25 11C8.24933 11.3507 8.12833 11.6467 7.887 11.888C7.64567 12.1293 7.35 12.25 7 12.25ZM13 12.25C12.65 12.25 12.354 12.129 12.112 11.887C11.87 11.645 11.7493 11.3493 11.75 11C11.7507 10.6507 11.8717 10.3547 12.113 10.112C12.3543 9.86934 12.65 9.74867 13 9.75C13.35 9.75134 13.646 9.87234 13.888 10.113C14.13 10.3537 14.2507 10.6493 14.25 11C14.2493 11.3507 14.1283 11.6467 13.887 11.888C13.6457 12.1293 13.35 12.25 13 12.25ZM10 18C12.2333 18 14.125 17.225 15.675 15.675C17.225 14.125 18 12.2333 18 10C18 9.60001 17.975 9.21267 17.925 8.83801C17.875 8.46334 17.7833 8.10067 17.65 7.75001C17.3 7.83334 16.95 7.89601 16.6 7.938C16.25 7.98 15.8833 8.00067 15.5 8C13.9833 8 12.55 7.675 11.2 7.025C9.85 6.375 8.7 5.46667 7.75 4.30001C7.21667 5.60001 6.45433 6.72934 5.463 7.688C4.47167 8.64667 3.31733 9.36734 2 9.85001V10C2 12.2333 2.775 14.125 4.325 15.675C5.875 17.225 7.76667 18 10 18ZM10 20C8.61667 20 7.31667 19.7377 6.1 19.213C4.88334 18.6883 3.825 17.9757 2.925 17.075C2.025 16.1743 1.31267 15.116 0.788001 13.9C0.263335 12.684 0.000667933 11.384 1.26582e-06 10C-0.000665401 8.616 0.262001 7.31601 0.788001 6.10001C1.314 4.88401 2.02633 3.82567 2.925 2.92501C3.82367 2.02434 4.882 1.31201 6.1 0.788005C7.318 0.264005 8.618 0.00133838 10 5.0505e-06C11.382 -0.00132828 12.682 0.261339 13.9 0.788005C15.118 1.31467 16.1763 2.02701 17.075 2.92501C17.9737 3.82301 18.6863 4.88134 19.213 6.10001C19.7397 7.31867 20.002 8.61867 20 10C19.998 11.3813 19.7353 12.6813 19.212 13.9C18.6887 15.1187 17.9763 16.177 17.075 17.075C16.1737 17.973 15.1153 18.6857 13.9 19.213C12.6847 19.7403 11.3847 20.0027 10 20Z" fill="#FF4242"/>
</svg>
